<svg xmlns="http://www.w3.org/2000/svg" width="28.611" height="25.86" viewBox="0 0 28.611 25.86">
  <g id="briefcase" transform="translate(0.001 -0.5)">
    <path id="Path_105" data-name="Path 105" d="M25.558,220.165a3.568,3.568,0,0,1-2.426.948h-5.8v.825a2.479,2.479,0,0,1-2.476,2.476h-1.1a2.479,2.479,0,0,1-2.476-2.476v-.825h-4.9a3.559,3.559,0,0,1-2.062-.654L0,217.4v7.563H2.2a4.131,4.131,0,0,1,4.127,4.127v1.926H22.283v-1.926a4.131,4.131,0,0,1,4.127-4.127h2.2V217.27l-3.045,2.887-.008.008Zm0,0" transform="translate(0 -204.657)" fill="#1ed102"/>
    <path id="Path_106" data-name="Path 106" d="M233.309,231.913a.826.826,0,0,0,.825-.825v-3.3a.826.826,0,0,0-.825-.825h-1.1a.826.826,0,0,0-.825.825v3.3a.826.826,0,0,0,.825.825Zm0,0" transform="translate(-218.454 -213.806)" fill="#1ed102"/>
    <path id="Path_107" data-name="Path 107" d="M26.135,7.1H22.141L20.835,2.14A2.2,2.2,0,0,0,18.707.5H9.9A2.2,2.2,0,0,0,7.775,2.14L6.469,7.1H2.476A2.479,2.479,0,0,0,0,9.578v1.144l5.267,3.732a1.914,1.914,0,0,0,1.109.351h4.9V13.98A2.479,2.479,0,0,1,13.755,11.5h1.1a2.479,2.479,0,0,1,2.476,2.476v.825h5.8a1.92,1.92,0,0,0,1.3-.507l4.158-3.943.018-.015V9.578A2.479,2.479,0,0,0,26.135,7.1Zm-15.114,0L11.6,4.9h5.41l.579,2.2Zm0,0" transform="translate(0)" fill="#1ed102"/>
    <path id="Path_108" data-name="Path 108" d="M428.309,386.976V388.9h2.2a2.479,2.479,0,0,0,2.476-2.476V384.5h-2.2A2.479,2.479,0,0,0,428.309,386.976Zm0,0" transform="translate(-404.375 -362.542)" fill="#1ed102"/>
    <path id="Path_109" data-name="Path 109" d="M2.2,384.5H0v1.926A2.479,2.479,0,0,0,2.476,388.9h2.2v-1.926A2.479,2.479,0,0,0,2.2,384.5Zm0,0" transform="translate(-0.001 -362.542)" fill="#1ed102"/>
  </g>
</svg>
