<svg xmlns="http://www.w3.org/2000/svg" width="24" height="23.37" viewBox="0 0 24 23.37">
  <path id="Calendar" d="M21,23.37H3a3,3,0,0,1-3-3V5.64a3,3,0,0,1,3-3h.49V1.5a1.5,1.5,0,1,1,3,0V2.64h11V1.5a1.5,1.5,0,0,1,3,0V2.64H21a3,3,0,0,1,3,3V20.37A3,3,0,0,1,21,23.37ZM14,16.5a1,1,0,1,0,1,1A1,1,0,0,0,14,16.5Zm-4,0a1,1,0,1,0,1,1A1,1,0,0,0,10,16.5Zm-4,0a1,1,0,1,0,1,1A1,1,0,0,0,6,16.5Zm12-4a1,1,0,1,0,1,1A1,1,0,0,0,18,12.5Zm-4,0a1,1,0,1,0,1,1A1,1,0,0,0,14,12.5Zm-4,0a1,1,0,1,0,1,1A1,1,0,0,0,10,12.5Zm-4,0a1,1,0,1,0,1,1A1,1,0,0,0,6,12.5Zm12-4a1,1,0,1,0,1,1A1,1,0,0,0,18,8.5Zm-4,0a1,1,0,1,0,1,1A1,1,0,0,0,14,8.5Zm-4,0a1,1,0,1,0,1,1A1,1,0,0,0,10,8.5Zm-4,0a1,1,0,1,0,1,1A1,1,0,0,0,6,8.5Z" transform="translate(0 0)" fill="#3e2ad1"/>
</svg>
