<svg xmlns="http://www.w3.org/2000/svg" width="30.052" height="30.052" viewBox="0 0 30.052 30.052">
  <g id="confetti" transform="translate(-0.001 0)">
    <path id="Path_112" data-name="Path 112" d="M66.547,137.793a2.6,2.6,0,0,0-3.678,0l-.356.356a2.6,2.6,0,0,0-.191,3.464l-.893,2.763,11.06,11.06,2.763-.893a2.6,2.6,0,0,0,3.464-.191l.357-.357a2.6,2.6,0,0,0,0-3.678Zm0,0" transform="translate(-57.823 -128.99)" fill="#09acce"/>
    <path id="Path_113" data-name="Path 113" d="M.149,370.635A3.019,3.019,0,0,0,.89,373.71a3.054,3.054,0,0,0,3.075.741l4.6-1.487-6.932-6.932Zm0,0" transform="translate(0 -344.547)" fill="#09acce"/>
    <path id="Path_114" data-name="Path 114" d="M38.066,296.1l8.187,8.187,2.392-.773-9.806-9.806Zm0,0" transform="translate(-35.832 -276.471)" fill="#09acce"/>
    <path id="Path_115" data-name="Path 115" d="M274.828,93.428a.864.864,0,0,0,.613-.254,3.24,3.24,0,0,1,1.181-.8,5.45,5.45,0,0,0,2.861-2.861,3.717,3.717,0,0,1,1.975-1.976,4.9,4.9,0,0,0,1.706-1.155.867.867,0,1,0-1.226-1.226,3.239,3.239,0,0,1-1.18.795,5.447,5.447,0,0,0-2.86,2.861,3.719,3.719,0,0,1-1.976,1.976,4.9,4.9,0,0,0-1.706,1.155.867.867,0,0,0,.613,1.48Zm0,0" transform="translate(-257.881 -79.924)" fill="#09acce"/>
    <path id="Path_116" data-name="Path 116" d="M200.547,7.817a.867.867,0,0,0,1.734,0,1.188,1.188,0,0,1,.217-.728,2.881,2.881,0,0,0,.445-1.588,2.881,2.881,0,0,0-.445-1.588,1.331,1.331,0,0,1,0-1.456,2.881,2.881,0,0,0,.445-1.588.867.867,0,1,0-1.734,0,1.189,1.189,0,0,1-.217.728,2.879,2.879,0,0,0-.445,1.588,2.879,2.879,0,0,0,.445,1.588,1.332,1.332,0,0,1,0,1.456,2.881,2.881,0,0,0-.445,1.589Zm0,0" transform="translate(-188.775 0)" fill="#09acce"/>
    <path id="Path_117" data-name="Path 117" d="M371.875,271.3a1.188,1.188,0,0,1-.728-.217,3.057,3.057,0,0,0-3.177,0,1.332,1.332,0,0,1-1.457,0,2.88,2.88,0,0,0-1.588-.445.867.867,0,1,0,0,1.734,1.188,1.188,0,0,1,.728.217,3.057,3.057,0,0,0,3.177,0,1.331,1.331,0,0,1,1.456,0,2.881,2.881,0,0,0,1.588.445.867.867,0,1,0,0-1.734Zm0,0" transform="translate(-342.689 -254.755)" fill="#09acce"/>
    <path id="Path_118" data-name="Path 118" d="M286.788,38.8h1.872a.867.867,0,1,0,0-1.734h-1.872a.867.867,0,1,0,0,1.734Zm0,0" transform="translate(-269.139 -34.887)" fill="#09acce"/>
    <path id="Path_119" data-name="Path 119" d="M278.816,95.549a.867.867,0,0,0,.867-.867v-.936a.867.867,0,0,0-1.734,0v.936A.867.867,0,0,0,278.816,95.549Zm0,0" transform="translate(-261.635 -87.427)" fill="#09acce"/>
    <path id="Path_120" data-name="Path 120" d="M446.265,168.25a.867.867,0,0,0,.867-.867v-1.872a.867.867,0,0,0-1.734,0v1.872A.867.867,0,0,0,446.265,168.25Zm0,0" transform="translate(-419.255 -154.981)" fill="#09acce"/>
    <path id="Path_121" data-name="Path 121" d="M374.5,204.516a.867.867,0,0,0,0,1.734h.936a.867.867,0,1,0,0-1.734Zm0,0" transform="translate(-351.705 -192.512)" fill="#09acce"/>
  </g>
</svg>
