<svg xmlns="http://www.w3.org/2000/svg" width="16" height="15.644" viewBox="0 0 16 15.644">
  <path id="Comment" d="M15.334,15.644h-10a.662.662,0,1,1,0-1.324h10a.662.662,0,1,1,0,1.324ZM.36,15.627a.363.363,0,0,1-.178-.047A.355.355,0,0,1,0,15.26L.154,10.9A.665.665,0,0,1,.5,10.344a.669.669,0,0,1,.656.007l3.074,1.733a.659.659,0,0,1,.026,1.138l-3.7,2.349A.359.359,0,0,1,.36,15.627Zm4.808-4.963h0a2.013,2.013,0,0,1-.988-.26l-1.513-.86A1.979,1.979,0,0,1,1.92,6.837L5.254,1A2.008,2.008,0,0,1,7.98.26l1.513.86a1.98,1.98,0,0,1,.747,2.706L6.907,9.662A2.009,2.009,0,0,1,5.168,10.664Z" transform="translate(0 0)" fill="#5f87e7"/>
</svg>
