<svg xmlns="http://www.w3.org/2000/svg" width="119.956" height="164.94" viewBox="0 0 119.956 164.94">
  <g id="Group_12" data-name="Group 12" transform="translate(-128 -171.564)">
    <g id="clipboard_2_" data-name="clipboard (2)" transform="translate(127.922 171.564)">
      <path id="Path_61" data-name="Path 61" d="M15.073,87.816H105.04a14.994,14.994,0,0,1,14.995,14.995V215.27a14.994,14.994,0,0,1-14.995,14.995H15.073A14.994,14.994,0,0,1,.078,215.27V102.811A15,15,0,0,1,15.073,87.816Zm0,0" transform="translate(0 -65.325)" fill="#d5daff"/>
      <path id="Path_63" data-name="Path 63" d="M170.365,175.637H95.392a7.5,7.5,0,0,0-7.5,7.5V280.6a7.5,7.5,0,0,0,7.5,7.5h61.265a15,15,0,0,0,10.6-4.391l6.211-6.211a14.994,14.994,0,0,0,4.392-10.6V183.134A7.5,7.5,0,0,0,170.365,175.637Zm0,0" transform="translate(-65.325 -130.653)" fill="none"/>
      <path id="Path_64" data-name="Path 64" d="M146.4,238.527l-18.1,18.1a7.5,7.5,0,0,1-5.3,2.2H66.121a7.5,7.5,0,0,1-7.5-7.5V153.861a7.5,7.5,0,0,1,7.5-7.5H141.1a7.5,7.5,0,0,1,7.5,7.5v79.365A7.494,7.494,0,0,1,146.4,238.527Zm0,0" transform="translate(-43.552 -108.877)" fill="#e4e7fb"/>
      <path id="Path_66" data-name="Path 66" d="M95.392,146.363h59.979a7.5,7.5,0,0,1,0,14.995H95.392a7.5,7.5,0,1,1,0-14.995Zm0,0" transform="translate(-65.325 -108.877)" fill="#c2cbff"/>
      <path id="Path_73" data-name="Path 73" d="M151.622,22.491h-3.749a22.492,22.492,0,0,0-44.984,0H99.141a11.246,11.246,0,1,0,0,22.492h52.481a11.246,11.246,0,0,0,0-22.492Zm-26.241,7.5a7.5,7.5,0,1,1,7.5-7.5A7.5,7.5,0,0,1,125.381,29.989Zm0,0" transform="translate(-65.325)" fill="#7d8fac"/>
    </g>
  </g>
</svg>
