<svg xmlns="http://www.w3.org/2000/svg" width="22" height="24.227" viewBox="0 0 22 24.227">
  <g id="home" transform="translate(-23.531 -0.001)">
    <g id="Group_31" data-name="Group 31" transform="translate(23.531 0.001)">
      <g id="Group_30" data-name="Group 30" transform="translate(0 0)">
        <path id="Path_85" data-name="Path 85" d="M45.153,8,35.132.207a.979.979,0,0,0-1.2,0L23.909,8a.979.979,0,0,0-.378.772V21.022a3.209,3.209,0,0,0,3.206,3.206H42.325a3.209,3.209,0,0,0,3.206-3.206V8.774A.979.979,0,0,0,45.153,8ZM43.574,21.022a1.25,1.25,0,0,1-1.248,1.248H26.737a1.25,1.25,0,0,1-1.248-1.248V9.252l9.043-7.033,9.043,7.033Z" transform="translate(-23.531 -0.001)" fill="#5f87e7"/>
      </g>
    </g>
    <g id="Group_33" data-name="Group 33" transform="translate(29.88 10.128)">
      <g id="Group_32" data-name="Group 32" transform="translate(0)">
        <path id="Path_86" data-name="Path 86" d="M172.971,235.317h-7.195a1.054,1.054,0,0,0-1.054,1.054v11.991a1.054,1.054,0,1,0,2.108,0V237.425h5.087v10.937a1.054,1.054,0,1,0,2.108,0V236.371A1.054,1.054,0,0,0,172.971,235.317Z" transform="translate(-164.722 -235.317)" fill="#5f87e7"/>
      </g>
    </g>
  </g>
</svg>
