<svg xmlns="http://www.w3.org/2000/svg" width="29.324" height="35.461" viewBox="0 0 29.324 35.461">
  <path id="presentation_1_" data-name="presentation (1)" d="M26.255,4.092H19.776V3.069A3.072,3.072,0,0,0,16.707,0H12.616A3.072,3.072,0,0,0,9.547,3.069V4.092H3.069a3.069,3.069,0,0,0-.341,6.118V27.619A3.072,3.072,0,0,0,5.8,30.688h5.62L7.256,33.6a1.023,1.023,0,0,0,1.173,1.676l5.21-3.647v2.809a1.023,1.023,0,0,0,2.046,0V31.629l5.21,3.647A1.023,1.023,0,1,0,22.068,33.6l-4.161-2.912h5.62A3.072,3.072,0,0,0,26.6,27.619V10.21a3.069,3.069,0,0,0-.341-6.118ZM11.593,3.069a1.024,1.024,0,0,1,1.023-1.023h4.092A1.024,1.024,0,0,1,17.73,3.069V4.092H11.593Zm2.046,15.344h2.046a2.728,2.728,0,1,1,0,5.456v1.7a1.023,1.023,0,1,1-2.046,0v-1.7h-1.7a1.023,1.023,0,1,1,0-2.046h3.751a.682.682,0,1,0,0-1.364H13.639a2.728,2.728,0,0,1,0-5.455V13.3a1.023,1.023,0,1,1,2.046,0V15h1.7a1.023,1.023,0,1,1,0,2.046H13.639a.682.682,0,0,0,0,1.364ZM26.255,8.183H3.069a1.023,1.023,0,1,1,0-2.046H26.255a1.023,1.023,0,1,1,0,2.046Zm0,0" transform="translate(0)" fill="#d10263"/>
</svg>
