<svg xmlns="http://www.w3.org/2000/svg" width="21.94" height="24.213" viewBox="0 0 21.94 24.213">
  <path id="Settings" d="M10.469,24.212a2,2,0,0,1-1.927-1.471l-.3-1.08a1.993,1.993,0,0,0-1.121-1.3c-.21-.1-.428-.206-.65-.33a7.254,7.254,0,0,1-.65-.41,2,2,0,0,0-1.63-.31l-1.21.3a2,2,0,0,1-2.21-.94l-.491-.851a2.007,2.007,0,0,1,.3-2.4l.81-.83a1.934,1.934,0,0,0,.58-1.53,9.164,9.164,0,0,1,0-1.661,2,2,0,0,0-.6-1.55l-.8-.82a2.01,2.01,0,0,1-.311-2.39l.5-.89a2,2,0,0,1,2.209-1l1.16.28a2,2,0,0,0,1.61-.31,9.031,9.031,0,0,1,1.41-.83,2.012,2.012,0,0,0,1-1.22l.37-1.24A1.993,1.993,0,0,1,10.4,0h1.071A2,2,0,0,1,13.4,1.472l.3,1.08a1.989,1.989,0,0,0,1.12,1.3c.206.093.424.2.65.33a7.12,7.12,0,0,1,.65.41,2,2,0,0,0,1.631.311l1.21-.3a2,2,0,0,1,2.21.94l.49.85a2.006,2.006,0,0,1-.3,2.4l-.81.83a1.938,1.938,0,0,0-.58,1.53,9.005,9.005,0,0,1,0,1.66,2,2,0,0,0,.6,1.55l.8.82a2.009,2.009,0,0,1,.31,2.39l-.5.89a2,2,0,0,1-2.21,1l-1.16-.28a2,2,0,0,0-1.61.31,9.024,9.024,0,0,1-1.409.83,2.01,2.01,0,0,0-1,1.22l-.371,1.24a1.991,1.991,0,0,1-1.879,1.429H10.469ZM10.992,8.1a4,4,0,1,0,4,4A4,4,0,0,0,10.992,8.1Z" transform="translate(-0.002 0)" fill="#3e2ad1"/>
</svg>
