<svg id="grid" xmlns="http://www.w3.org/2000/svg" width="22" height="22" viewBox="0 0 22 22">
  <g id="Group_23" data-name="Group 23">
    <g id="Group_22" data-name="Group 22">
      <path id="Path_81" data-name="Path 81" d="M7.752,0H2.044A2.047,2.047,0,0,0,0,2.044V7.752A2.047,2.047,0,0,0,2.044,9.8H7.752A2.047,2.047,0,0,0,9.8,7.752V2.044A2.047,2.047,0,0,0,7.752,0Zm.239,7.752a.239.239,0,0,1-.239.239H2.044a.239.239,0,0,1-.239-.239V2.044a.239.239,0,0,1,.239-.239H7.752a.239.239,0,0,1,.239.239Z" fill="#bebebe"/>
    </g>
  </g>
  <g id="Group_25" data-name="Group 25" transform="translate(12.203)">
    <g id="Group_24" data-name="Group 24">
      <path id="Path_82" data-name="Path 82" d="M295.363,0h-5.708a2.047,2.047,0,0,0-2.044,2.044V7.752A2.047,2.047,0,0,0,289.655,9.8h5.708a2.047,2.047,0,0,0,2.044-2.045V2.044A2.047,2.047,0,0,0,295.363,0Zm.239,7.752a.239.239,0,0,1-.239.239h-5.708a.239.239,0,0,1-.239-.239V2.044a.239.239,0,0,1,.239-.239h5.708a.239.239,0,0,1,.239.239Z" transform="translate(-287.611)" fill="#bebebe"/>
    </g>
  </g>
  <g id="Group_27" data-name="Group 27" transform="translate(12.203 12.203)">
    <g id="Group_26" data-name="Group 26">
      <path id="Path_83" data-name="Path 83" d="M295.363,287.611h-5.708a2.047,2.047,0,0,0-2.044,2.044v5.708a2.047,2.047,0,0,0,2.044,2.044h5.708a2.047,2.047,0,0,0,2.044-2.044v-5.708A2.047,2.047,0,0,0,295.363,287.611Zm.239,7.752a.239.239,0,0,1-.239.239h-5.708a.239.239,0,0,1-.239-.239v-5.708a.239.239,0,0,1,.239-.239h5.708a.239.239,0,0,1,.239.239Z" transform="translate(-287.611 -287.611)" fill="#bebebe"/>
    </g>
  </g>
  <g id="Group_29" data-name="Group 29" transform="translate(0 12.203)">
    <g id="Group_28" data-name="Group 28">
      <path id="Path_84" data-name="Path 84" d="M7.752,287.611H2.044A2.047,2.047,0,0,0,0,289.655v5.708a2.047,2.047,0,0,0,2.044,2.044H7.752A2.047,2.047,0,0,0,9.8,295.363v-5.708A2.047,2.047,0,0,0,7.752,287.611Zm.239,7.752a.239.239,0,0,1-.239.239H2.044a.239.239,0,0,1-.239-.239v-5.708a.239.239,0,0,1,.239-.239H7.752a.239.239,0,0,1,.239.239Z" transform="translate(0 -287.611)" fill="#bebebe"/>
    </g>
  </g>
</svg>
