<svg id="user" xmlns="http://www.w3.org/2000/svg" width="28.221" height="33.825" viewBox="0 0 28.221 33.825">
  <path id="Path_103" data-name="Path 103" d="M103.329,8.147a7.884,7.884,0,0,1-2.387,5.761,7.883,7.883,0,0,1-5.761,2.387h0a7.885,7.885,0,0,1-5.756-2.387,7.883,7.883,0,0,1-2.387-5.761,7.882,7.882,0,0,1,2.387-5.76A7.881,7.881,0,0,1,95.178,0h0a7.886,7.886,0,0,1,5.761,2.387A7.883,7.883,0,0,1,103.329,8.147Zm0,0" transform="translate(-81.285 0)" fill="#f9c229"/>
  <path id="Path_104" data-name="Path 104" d="M28.221,258.989a5.615,5.615,0,0,1-1.668,4.249,6,6,0,0,1-4.3,1.568H5.967a6,6,0,0,1-4.3-1.568A5.615,5.615,0,0,1,0,258.989c0-.679.022-1.351.067-2a20,20,0,0,1,.274-2.138,16.87,16.87,0,0,1,.525-2.148,10.656,10.656,0,0,1,.883-2,7.588,7.588,0,0,1,1.332-1.736A5.874,5.874,0,0,1,5,247.762a6.617,6.617,0,0,1,2.443-.442,2.475,2.475,0,0,1,1.323.561c.4.263.868.562,1.38.89a7.88,7.88,0,0,0,1.784.786,7.112,7.112,0,0,0,1.966.349q.108,0,.216,0a7.094,7.094,0,0,0,2.183-.353,7.879,7.879,0,0,0,1.785-.786c.518-.331.983-.63,1.38-.889a2.473,2.473,0,0,1,1.324-.562,6.62,6.62,0,0,1,2.443.442,5.88,5.88,0,0,1,1.914,1.2,7.56,7.56,0,0,1,1.332,1.736,10.618,10.618,0,0,1,.883,2,16.857,16.857,0,0,1,.526,2.149,20.184,20.184,0,0,1,.274,2.137c.046.644.068,1.316.069,2Zm0,0" transform="translate(0 -230.981)" fill="#f9c229"/>
</svg>
